<svg width="27" height="24" viewBox="0 0 27 24" fill="none" xmlns="http://www.w3.org/2000/svg">
<path d="M26.4901 0.32993C26.0296 -0.0516713 25.3062 -0.106271 24.5582 0.187129H24.557C23.7704 0.49553 2.28979 9.49796 1.41534 9.86576C1.25629 9.91976 -0.132759 10.4262 0.010322 11.5542C0.138051 12.5712 1.25445 12.9924 1.39078 13.041L6.85181 14.868C7.21411 16.0464 8.54974 20.394 8.84512 21.3228C9.02934 21.9018 9.32963 22.6626 9.85589 22.8192C10.3177 22.9932 10.777 22.8342 11.0742 22.6062L14.413 19.5804L19.8028 23.6874L19.9311 23.7624C20.2971 23.9208 20.6478 24 20.9824 24C21.241 24 21.4891 23.9526 21.7261 23.8578C22.5336 23.5338 22.8566 22.782 22.8904 22.6968L26.9163 2.25054C27.1619 1.15853 26.8205 0.602931 26.4901 0.32993ZM11.668 15.5988L9.8258 20.3988L7.98356 14.3988L22.1074 4.19874L11.668 15.5988Z" fill="#F6E36A"/>
</svg>
