<svg width="42" height="24" viewBox="0 0 42 24" fill="none" xmlns="http://www.w3.org/2000/svg">
<path d="M20.2018 0.00402701C17.9493 -0.0150634 16.0403 0.0140495 14.9599 0.540944C14.2422 0.892207 13.6881 1.68082 14.0279 1.72664C14.444 1.78009 15.3842 1.97899 15.892 2.66624C16.5372 3.54822 16.5183 5.5298 16.5183 5.5298C16.5183 5.5298 16.8867 10.98 15.6459 11.6596C14.7946 12.1254 13.6281 11.1796 11.1199 6.84226C9.83337 4.61632 8.8681 2.15915 8.8681 2.15915C8.8681 2.15915 8.67829 1.69508 8.34616 1.45072C7.93767 1.15291 7.36938 1.05549 7.36938 1.05549L1.37447 1.08532C1.37447 1.08532 0.468856 1.08729 0.13672 1.48055C-0.157239 1.83181 0.114351 2.52455 0.114351 2.52455C0.114351 2.52455 4.81388 13.4796 10.1357 19.0273C15.0185 24.113 20.5522 23.6507 20.5522 23.6507H23.065C23.065 23.6507 23.8277 23.6941 24.2133 23.2779C24.5683 22.8923 24.5563 22.2935 24.5563 22.2935C24.5563 22.2935 24.5085 18.9196 26.0699 18.4233C27.6122 17.9345 29.5886 21.6819 31.6845 23.1213C33.265 24.2133 34.4732 23.9789 34.4732 23.9789L40.0804 23.9043C40.0804 23.9043 43.0095 23.7201 41.6313 21.3987C41.5168 21.2078 40.8227 19.6896 37.4632 16.5664C33.9433 13.2982 34.415 13.8242 38.6488 8.16964C41.2295 4.72955 42.2615 2.6277 41.937 1.72664C41.6278 0.86375 39.7299 1.09278 39.7299 1.09278L33.4219 1.13006C33.4219 1.13006 32.9491 1.06175 32.6017 1.27175C32.2619 1.47792 32.0424 1.95035 32.0424 1.95035C32.0424 1.95035 31.0448 4.61907 29.7086 6.887C26.9026 11.6711 25.7787 11.9201 25.3168 11.6223C24.2479 10.9351 24.519 8.84949 24.519 7.36426C24.519 2.72912 25.2162 0.795025 23.147 0.294857C22.4598 0.126861 21.9579 0.0231174 20.2018 0.00402701Z" fill="#F6E36A"/>
</svg>
