<svg width="1200" height="768" viewBox="0 0 1200 768" fill="none" xmlns="http://www.w3.org/2000/svg">
<rect width="1200" height="768" fill="#1C1C1C"/>
<path fill-rule="evenodd" clip-rule="evenodd" d="M942.443 172.818C936.3 165.801 929.349 159.509 921.735 154.088L855.774 132.044C854.686 132.015 853.595 132 852.5 132C844.066 132 835.836 132.874 827.895 134.536L942.443 172.818ZM795.934 146.209C800.753 143.615 805.77 141.342 810.957 139.419L953.057 186.908C956.027 191.524 958.689 196.357 961.013 201.379L795.934 146.209ZM773.581 161.765C777.134 158.638 780.874 155.719 784.782 153.026L965.844 213.537C967.337 217.998 968.575 222.576 969.539 227.254L773.581 161.765ZM758.07 178.257C760.402 175.254 762.875 172.365 765.478 169.601L971.288 238.382C971.697 242.122 971.932 245.913 971.987 249.749L758.07 178.257ZM745.859 197.518C747.732 193.825 749.792 190.241 752.025 186.781L971.689 260.192C971.39 264.351 970.878 268.451 970.164 272.481L745.859 197.518ZM738.262 216.322C739.271 213.042 740.417 209.823 741.693 206.67L967.993 282.299C967.111 285.617 966.089 288.878 964.935 292.076L738.262 216.322ZM733.773 237.832C734.229 233.83 734.882 229.888 735.723 226.017L961.138 301.35C959.464 304.991 957.613 308.533 955.596 311.965L733.773 237.832ZM733.404 261.398C733.136 258.134 733 254.833 733 251.5C733 250.374 733.016 249.251 733.047 248.133L949.984 320.633C947.416 324.247 944.653 327.712 941.709 331.013L733.404 261.398ZM737.826 285.228C736.598 281.048 735.593 276.773 734.824 272.416L933.934 338.958C930.724 341.948 927.35 344.763 923.826 347.389L737.826 285.228ZM748.089 309.671C745.842 305.645 743.82 301.476 742.042 297.18L913.282 354.409C909.319 356.755 905.208 358.879 900.967 360.763L748.089 309.671ZM776.749 343.928C769.313 337.826 762.626 330.844 756.847 323.141L885.898 366.27C882.135 367.364 878.295 368.277 874.388 369H851.771L776.749 343.928Z" fill="#232323"/>
<line x1="179.5" y1="132" x2="179.5" y2="195" stroke="#232323" stroke-width="3"/>
<line x1="210" y1="164.5" x2="147" y2="164.5" stroke="#232323" stroke-width="3"/>
<line x1="806.5" y1="493" x2="806.5" y2="556" stroke="#232323" stroke-width="3"/>
<line x1="837" y1="525.5" x2="774" y2="525.5" stroke="#232323" stroke-width="3"/>
<path fill-rule="evenodd" clip-rule="evenodd" d="M268.443 666.818C262.3 659.801 255.349 653.509 247.735 648.088L181.774 626.044C180.686 626.015 179.595 626 178.5 626C170.066 626 161.836 626.874 153.895 628.536L268.443 666.818ZM121.934 640.209C126.753 637.615 131.77 635.342 136.957 633.419L279.057 680.908C282.027 685.524 284.689 690.357 287.013 695.379L121.934 640.209ZM99.5809 655.765C103.134 652.638 106.874 649.719 110.782 647.026L173.867 668.109C165.816 668.535 158.093 670.197 150.884 672.91L99.5809 655.765ZM242.995 703.694C238.762 697.048 233.539 691.096 227.532 686.044L291.844 707.537C293.337 711.998 294.575 716.576 295.539 721.254L242.995 703.694ZM91.4781 663.601L138.046 679.164C134.342 681.417 130.842 683.973 127.583 686.799L84.0697 672.257C86.4023 669.254 88.875 666.365 91.4781 663.601ZM249.521 716.419C251.112 720.397 252.381 724.539 253.296 728.813L297.987 743.749C297.932 739.913 297.697 736.122 297.288 732.382L249.521 716.419ZM78.0255 680.781L119.693 694.706C116.921 697.916 114.41 701.358 112.193 704.998L71.8587 691.518C73.7321 687.825 75.7918 684.241 78.0255 680.781ZM255 745C255 747.565 254.875 750.1 254.63 752.6L296.164 766.481C296.878 762.451 297.39 758.351 297.689 754.192L254.832 739.87C254.943 741.565 255 743.276 255 745ZM67.6935 700.67L107.506 713.975C106.136 717.083 104.966 720.299 104.011 723.606L64.262 710.322C65.2707 707.042 66.4168 703.823 67.6935 700.67ZM104.494 768C103.325 764.26 102.433 760.397 101.843 756.435L59.0465 742.133C59.0156 743.251 59 744.374 59 745.5C59 748.833 59.1364 752.134 59.404 755.398L97.1131 768H104.494ZM251.506 768H269.16L252.981 762.593C252.554 764.421 252.061 766.224 251.506 768ZM65.5643 768H61.115C61.0146 767.473 60.9177 766.945 60.8243 766.416L65.5643 768ZM61.7231 720.017L101.863 733.432C101.295 737.205 101 741.068 101 745C101 745.204 101.001 745.407 101.002 745.611L59.7731 731.832C60.2288 727.83 60.8821 723.888 61.7231 720.017Z" fill="#232323"/>
</svg>
